<svg id="mermaid-1665766498270" width="100%" xmlns="http://www.w3.org/2000/svg" xmlns:xlink="http://www.w3.org/1999/xlink" height="990.75" style="max-width: 2072.38671875px;" viewBox="-20 -20 2072.38671875 990.75"><style>#mermaid-1665766498270{font-family:"trebuchet ms",verdana,arial,sans-serif;font-size:16px;fill:#333;}#mermaid-1665766498270 .error-icon{fill:#552222;}#mermaid-1665766498270 .error-text{fill:#552222;stroke:#552222;}#mermaid-1665766498270 .edge-thickness-normal{stroke-width:2px;}#mermaid-1665766498270 .edge-thickness-thick{stroke-width:3.5px;}#mermaid-1665766498270 .edge-pattern-solid{stroke-dasharray:0;}#mermaid-1665766498270 .edge-pattern-dashed{stroke-dasharray:3;}#mermaid-1665766498270 .edge-pattern-dotted{stroke-dasharray:2;}#mermaid-1665766498270 .marker{fill:#333333;stroke:#333333;}#mermaid-1665766498270 .marker.cross{stroke:#333333;}#mermaid-1665766498270 svg{font-family:"trebuchet ms",verdana,arial,sans-serif;font-size:16px;}#mermaid-1665766498270 g.classGroup text{fill:#9370DB;fill:#131300;stroke:none;font-family:"trebuchet ms",verdana,arial,sans-serif;font-size:10px;}#mermaid-1665766498270 g.classGroup text .title{font-weight:bolder;}#mermaid-1665766498270 .classTitle{font-weight:bolder;}#mermaid-1665766498270 .node rect,#mermaid-1665766498270 .node circle,#mermaid-1665766498270 .node ellipse,#mermaid-1665766498270 .node polygon,#mermaid-1665766498270 .node path{fill:#ECECFF;stroke:#9370DB;stroke-width:1px;}#mermaid-1665766498270 .divider{stroke:#9370DB;stroke:1;}#mermaid-1665766498270 g.clickable{cursor:pointer;}#mermaid-1665766498270 g.classGroup rect{fill:#ECECFF;stroke:#9370DB;}#mermaid-1665766498270 g.classGroup line{stroke:#9370DB;stroke-width:1;}#mermaid-1665766498270 .classLabel .box{stroke:none;stroke-width:0;fill:#ECECFF;opacity:0.5;}#mermaid-1665766498270 .classLabel .label{fill:#9370DB;font-size:10px;}#mermaid-1665766498270 .relation{stroke:#333333;stroke-width:1;fill:none;}#mermaid-1665766498270 .dashed-line{stroke-dasharray:3;}#mermaid-1665766498270 #compositionStart,#mermaid-1665766498270 .composition{fill:#333333 !important;stroke:#333333 !important;stroke-width:1;}#mermaid-1665766498270 #compositionEnd,#mermaid-1665766498270 .composition{fill:#333333 !important;stroke:#333333 !important;stroke-width:1;}#mermaid-1665766498270 #dependencyStart,#mermaid-1665766498270 .dependency{fill:#333333 !important;stroke:#333333 !important;stroke-width:1;}#mermaid-1665766498270 #dependencyStart,#mermaid-1665766498270 .dependency{fill:#333333 !important;stroke:#333333 !important;stroke-width:1;}#mermaid-1665766498270 #extensionStart,#mermaid-1665766498270 .extension{fill:#333333 !important;stroke:#333333 !important;stroke-width:1;}#mermaid-1665766498270 #extensionEnd,#mermaid-1665766498270 .extension{fill:#333333 !important;stroke:#333333 !important;stroke-width:1;}#mermaid-1665766498270 #aggregationStart,#mermaid-1665766498270 .aggregation{fill:#ECECFF !important;stroke:#333333 !important;stroke-width:1;}#mermaid-1665766498270 #aggregationEnd,#mermaid-1665766498270 .aggregation{fill:#ECECFF !important;stroke:#333333 !important;stroke-width:1;}#mermaid-1665766498270 .edgeTerminals{font-size:11px;}#mermaid-1665766498270:root{--mermaid-font-family:"trebuchet ms",verdana,arial,sans-serif;}</style><g></g><defs><marker id="extensionStart" class="extension" refX="0" refY="7" markerWidth="190" markerHeight="240" orient="auto"><path d="M 1,7 L18,13 V 1 Z"></path></marker></defs><defs><marker id="extensionEnd" refX="19" refY="7" markerWidth="20" markerHeight="28" orient="auto"><path d="M 1,1 V 13 L18,7 Z"></path></marker></defs><defs><marker id="compositionStart" class="extension" refX="0" refY="7" markerWidth="190" markerHeight="240" orient="auto"><path d="M 18,7 L9,13 L1,7 L9,1 Z"></path></marker></defs><defs><marker id="compositionEnd" refX="19" refY="7" markerWidth="20" markerHeight="28" orient="auto"><path d="M 18,7 L9,13 L1,7 L9,1 Z"></path></marker></defs><defs><marker id="aggregationStart" class="extension" refX="0" refY="7" markerWidth="190" markerHeight="240" orient="auto"><path d="M 18,7 L9,13 L1,7 L9,1 Z"></path></marker></defs><defs><marker id="aggregationEnd" refX="19" refY="7" markerWidth="20" markerHeight="28" orient="auto"><path d="M 18,7 L9,13 L1,7 L9,1 Z"></path></marker></defs><defs><marker id="dependencyStart" class="extension" refX="0" refY="7" markerWidth="190" markerHeight="240" orient="auto"><path d="M 5,7 L9,13 L1,7 L9,1 Z"></path></marker></defs><defs><marker id="dependencyEnd" refX="19" refY="7" markerWidth="20" markerHeight="28" orient="auto"><path d="M 18,7 L9,13 L14,7 L9,1 Z"></path></marker></defs><g id="classid-Employee-0" class="classGroup" transform="translate(914.26953125,486.3125 )"><rect x="0" y="0" width="258.59375" height="158.21875" class=" "></rect><text y="15" x="0"><tspan class="title" x="106.5234375">Employee</tspan></text><line x1="0" y1="21.0625" y2="21.0625" x2="258.59375"></line><text x="5" y="31.0625" fill="white" class="classText"><tspan x="5">-final String</tspan><tspan x="5" dy="10">-String name</tspan><tspan x="5" dy="10">-double grossSalary</tspan></text><line x1="0" y1="57.125" y2="57.125" x2="258.59375"></line><text x="5" y="72.125" fill="white" class="classText"><tspan x="5">+Employee(String ID, String name, double grossSalary)</tspan><tspan x="5" dy="10">+compareTo(Employee otherEmployee) : int</tspan><tspan x="5" dy="10">+getRawSalary() : double</tspan><tspan x="5" dy="10">+getNetSalary() : double</tspan><tspan x="5" dy="10">+getID() : String</tspan><tspan x="5" dy="10">+getName() : String</tspan><tspan x="5" dy="10">+getGrossSalary() : double</tspan><tspan x="5" dy="10">+setName(String newName) : void</tspan><tspan x="5" dy="10">+setGrossSalary(double newGrossSalary)</tspan></text></g><g id="classid-Intern-1" class="classGroup" transform="translate(1192.296875,694.53125 )"><rect x="0" y="0" width="280.046875" height="108.0625" class=" "></rect><text y="15" x="0"><tspan class="title" x="125.734375">Intern</tspan></text><line x1="0" y1="21" y2="21" x2="280.046875"></line><text x="5" y="31" fill="white" class="classText"><tspan x="5">-final double</tspan><tspan x="5" dy="10">-int gpa</tspan></text><line x1="0" y1="47.0625" y2="47.0625" x2="280.046875"></line><text x="5" y="62.0625" fill="white" class="classText"><tspan x="5">+Intern(String ID, String name, double grossSalary, int gpa)</tspan><tspan x="5" dy="10">+setGpa(int newGPA) : void</tspan><tspan x="5" dy="10">+getGrossSalary() : double</tspan><tspan x="5" dy="10">+getNetSalary() : double</tspan><tspan x="5" dy="10">+static checkValidGPA</tspan></text></g><g id="classid-Manager-2" class="classGroup" transform="translate(823.125,704.453125 )"><rect x="0" y="0" width="319.171875" height="88.21875" class=" "></rect><text y="15" x="0"><tspan class="title" x="140.0546875">Manager</tspan></text><line x1="0" y1="21.0625" y2="21.0625" x2="319.171875"></line><text x="5" y="31.0625" fill="white" class="classText"><tspan x="5">-String Degree</tspan></text><line x1="0" y1="37.125" y2="37.125" x2="319.171875"></line><text x="5" y="52.125" fill="white" class="classText"><tspan x="5">+Manager(String ID, String name, double grossSalary, String degree)</tspan><tspan x="5" dy="10">+updateDegree(String newDegree) : void</tspan><tspan x="5" dy="10">+getDegree() : String</tspan><tspan x="5" dy="10">+getGrossSalary() : double</tspan></text></g><g id="classid-Director-3" class="classGroup" transform="translate(846.98046875,852.59375 )"><rect x="0" y="0" width="406.8125" height="98.15625" class=" "></rect><text y="15" x="0"><tspan class="title" x="184.1796875">Director</tspan></text><line x1="0" y1="21" y2="21" x2="406.8125"></line><text x="5" y="31" fill="white" class="classText"><tspan x="5">-String Department</tspan></text><line x1="0" y1="37.0625" y2="37.0625" x2="406.8125"></line><text x="5" y="52.0625" fill="white" class="classText"><tspan x="5">+Director(String ID, String name, double grossSalary, String degree, String department)</tspan><tspan x="5" dy="10">+updateDepartment(String newDept) : void</tspan><tspan x="5" dy="10">+getDegree() : String</tspan><tspan x="5" dy="10">+getGrossSalary() : double</tspan><tspan x="5" dy="10">+getNetSalary() : double</tspan></text></g><g id="classid-Company-4" class="classGroup" transform="translate(793.00390625,168.09375 )"><rect x="0" y="0" width="566.25" height="268.21875" class=" "></rect><text y="15" x="0"><tspan class="title" x="261.7421875">Company</tspan></text><line x1="0" y1="21.0625" y2="21.0625" x2="566.25"></line><text x="5" y="31.0625" fill="white" class="classText"><tspan x="5">-ArrayList&lt;Employee&gt; employees</tspan></text><line x1="0" y1="37.125" y2="37.125" x2="566.25"></line><text x="5" y="52.125" fill="white" class="classText"><tspan x="5">+Company()</tspan><tspan x="5" dy="10">+createEmployee(String employeeID, String employeeName, double grossSalary) : String</tspan><tspan x="5" dy="10">+createEmployee(String employeeID, String employeeName, double grossSalary, String degree) : String</tspan><tspan x="5" dy="10">+createEmployee(String employeeID, String employeeName, double grossSalary, String degree, String department) : String</tspan><tspan x="5" dy="10">+createEmployee(String employeeID, String employeeName, double grossSalary, int gpa) : String</tspan><tspan x="5" dy="10">+removeEmployee(String id) : String</tspan><tspan x="5" dy="10">+printEmployee(String id) : String</tspan><tspan x="5" dy="10">+printAllEmployees() : String</tspan><tspan x="5" dy="10">+printSortedEmployees() : String</tspan><tspan x="5" dy="10">+getNetSalary(String id) : double</tspan><tspan x="5" dy="10">+updateEmployeeName(String id, String newName) : String</tspan><tspan x="5" dy="10">+updateInternGPA(String id, int newGpa) : String</tspan><tspan x="5" dy="10">+updateManagerDegree(String id, String newDegree) : String</tspan><tspan x="5" dy="10">+updateDirectorDept(String id, String newDept) : String</tspan><tspan x="5" dy="10">+updateGrossSalary(String id, double newGrossSalary) : String</tspan><tspan x="5" dy="10">+getTotalNetSalary() : double</tspan><tspan x="5" dy="10">+mapEachDegree() : (HashMap&lt;String, Integer&gt;)</tspan><tspan x="5" dy="10">+formatDegrees(HashMap&lt;String, Integer&gt; degrees) : String</tspan><tspan x="5" dy="10">+promoteToManager(String id, String degree) : String</tspan><tspan x="5" dy="10">+promoteToDirector(String id, String degree, String department) : String</tspan><tspan x="5" dy="10">+promoteToIntern(String id, int gpa) : String</tspan><tspan x="5" dy="10">-findEmployeeIndex(String id) : int</tspan></text></g><g id="classid-EmployeeFactory-5" class="classGroup" transform="translate(1543.52734375,20.46875 )"><rect x="0" y="0" width="488.859375" height="77.15625" class=" "></rect><text y="15" x="0"><tspan class="title" x="203.8984375">EmployeeFactory</tspan></text><line x1="0" y1="21.0625" y2="21.0625" x2="488.859375"></line><text x="5" y="31.0625" fill="white" class="classText"></text><line x1="0" y1="26.0625" y2="26.0625" x2="488.859375"></line><text x="5" y="41.0625" fill="white" class="classText"><tspan x="5" style="text-decoration:underline;">+createEmployee(String employeeID, String employeeName, double grossSalary) : Employee</tspan><tspan x="5" style="text-decoration:underline;" dy="10">+createEmployee(String ID, String name, double grossSalary, String degree) : Manager</tspan><tspan x="5" style="text-decoration:underline;" dy="10">+createEmployee(String ID, String name, double grossSalary, String degree, String department) : Director</tspan><tspan x="5" style="text-decoration:underline;" dy="10">+createEmployee(String employeeID, String employeeName, double grossSalary, int gpa) : Intern</tspan></text></g><g id="classid-Utils-6" class="classGroup" transform="translate(765.23046875,0 )"><rect x="0" y="0" width="279.953125" height="118.09375" class=" "></rect><text y="15" x="0"><tspan class="title" x="129.484375">Utils</tspan></text><line x1="0" y1="21" y2="21" x2="279.953125"></line><text x="5" y="31" fill="white" class="classText"><tspan x="5">+final static</tspan><tspan x="5" dy="10">+final static</tspan><tspan x="5" dy="10">+final static</tspan></text><line x1="0" y1="57" y2="57" x2="279.953125"></line><text x="5" y="72" fill="white" class="classText"><tspan x="5" style="text-decoration:underline;">+truncateDouble(double value, int decimalPlaces) : double</tspan><tspan x="5" style="text-decoration:underline;" dy="10">+isStringEmpty(String string) : boolean</tspan><tspan x="5" style="text-decoration:underline;" dy="10">+registeredEmployee(String id) : String</tspan><tspan x="5" style="text-decoration:underline;" dy="10">+updatedEmployee(String id) : String</tspan><tspan x="5" style="text-decoration:underline;" dy="10">+promotedEmployee(String id, String newType) : String</tspan></text></g><g id="classid-ExceptionThrower-7" class="classGroup" transform="translate(148.81640625,238.625 )"><rect x="0" y="0" width="262.984375" height="127.15625" class=" "></rect><text y="15" x="0"><tspan class="title" x="88.3671875">ExceptionThrower</tspan></text><line x1="0" y1="21.0625" y2="21.0625" x2="262.984375"></line><text x="5" y="31.0625" fill="white" class="classText"></text><line x1="0" y1="26.0625" y2="26.0625" x2="262.984375"></line><text x="5" y="41.0625" fill="white" class="classText"><tspan x="5" style="text-decoration:underline;">+checkEmptyId(String id) : void</tspan><tspan x="5" style="text-decoration:underline;" dy="10">+checkEmptyName(String name) : void</tspan><tspan x="5" style="text-decoration:underline;" dy="10">+checkEmptyGrossSalary(double salary) : void</tspan><tspan x="5" style="text-decoration:underline;" dy="10">+checkValidDegree(String degree) : void</tspan><tspan x="5" style="text-decoration:underline;" dy="10">+checkIfEmployeeFound(String id, int index) : void</tspan><tspan x="5" style="text-decoration:underline;" dy="10">+checkIfEmployeeRegistered(String id, int index) : void</tspan><tspan x="5" style="text-decoration:underline;" dy="10">+checkIfNoEmployees(int size) : void</tspan><tspan x="5" style="text-decoration:underline;" dy="10">+checkValidDepartment(String degree) : void</tspan><tspan x="5" style="text-decoration:underline;" dy="10">+checkValidGPA(int newGPA) : void</tspan></text></g><g id="classid-StringCannotBeEmptyException-8" class="classGroup" transform="translate(0,30.46875 )"><rect x="0" y="0" width="234.90625" height="57.15625" class=" "></rect><text y="15" x="0"><tspan class="title" x="43.625">StringCannotBeEmptyException</tspan></text><line x1="0" y1="21.0625" y2="21.0625" x2="234.90625"></line><text x="5" y="31.0625" fill="white" class="classText"></text><line x1="0" y1="26.0625" y2="26.0625" x2="234.90625"></line><text x="5" y="41.0625" fill="white" class="classText"><tspan x="5">+StringCannotBeEmptyException()</tspan><tspan x="5" dy="10">+StringCannotBeEmptyException(String message)</tspan></text></g><g id="classid-NegativeValueException-9" class="classGroup" transform="translate(284.90625,30.46875 )"><rect x="0" y="0" width="202.4375" height="57.15625" class=" "></rect><text y="15" x="0"><tspan class="title" x="44.5703125">NegativeValueException</tspan></text><line x1="0" y1="21.0625" y2="21.0625" x2="202.4375"></line><text x="5" y="31.0625" fill="white" class="classText"></text><line x1="0" y1="26.0625" y2="26.0625" x2="202.4375"></line><text x="5" y="41.0625" fill="white" class="classText"><tspan x="5">+NegativeValueException()</tspan><tspan x="5" dy="10">+NegativeValueException(String message)</tspan></text></g><path d="M1035.9677269763995,644.53125L1035.567506855333,648.6979166666666C1035.1672867342663,652.8645833333334,1034.3668464921332,661.1979166666666,1060.4217044960667,672.362911553741C1086.4765625,683.5279064408154,1139.38671875,697.5245628816307,1165.841796875,704.5228911020384L1192.296875,711.5212193224461" id="edge0" class="relation" marker-start="url(#extensionStart)"></path><path d="M1172.86328125,639.5362141367L1181.5846354166667,644.5353867805833C1190.3059895833333,649.5345594244667,1207.7486979166667,659.5329047122333,1198.6124058576759,670.3523898561167C1189.4761137986852,681.171875,1153.7608213473704,692.8125,1135.903175121713,698.6328125L1118.0455288960557,704.453125" id="edge1" class="relation" marker-start="url(#extensionStart)"></path><path d="M982.7109375,792.671875L982.7109375,798.4921875C982.7109375,804.3125,982.7109375,815.953125,986.517492024362,825.9401041666666C990.3240465487239,835.9270833333334,997.9371555974479,844.2604166666666,1001.7437101218098,848.4270833333334L1005.5502646461717,852.59375" id="edge2" class="relation" marker-start="url(#extensionStart)"></path><path d="M1076.12890625,436.3125L1076.12890625,440.4791666666667C1076.12890625,444.6458333333333,1076.12890625,452.9791666666667,1074.8256894807769,461.3125C1073.5224727115537,469.6458333333333,1070.9160391731077,477.9791666666667,1069.6128224038846,482.1458333333333L1068.3096056346615,486.3125" id="edge3" class="relation" marker-start="url(#compositionStart)"></path><path d="M1683.6691495573061,97.625L1663.1832756727551,105.203125C1642.697401788204,112.78125,1601.725654019102,127.9375,1547.6564468012177,146.5415175500817C1493.5872395833333,165.14553510016336,1426.4205729166667,187.19732020032674,1392.8372395833333,198.22321275040838L1359.25390625,209.24910530049007" id="edge4" class="relation" marker-start="url(#dependencyStart)"></path><path d="M765.23046875,82.61933787128713L705.3795572916666,92.69840655940595C645.5286458333334,102.77747524752476,525.8268229166666,122.93561262376238,530.4557291666666,148.32704501600975C535.0846354166666,173.7184774082571,664.0442708333334,204.3432048165142,728.5240885416666,219.65556852064276L793.00390625,234.96793222477132" id="edge5" class="relation" marker-start="url(#dependencyStart)"></path><path d="M765.23046875,87.33830339865106L719.25390625,96.63087783220924C673.27734375,105.92345226576738,581.32421875,124.5086011328837,535.34765625,160.3194047331085C489.37109375,196.13020833333334,489.37109375,249.16666666666666,489.37109375,302.203125C489.37109375,355.2395833333333,489.37109375,408.2760416666667,489.37109375,452.1458333333333C489.37109375,496.015625,489.37109375,530.71875,489.37109375,565.421875C489.37109375,600.125,489.37109375,634.828125,489.37109375,665.3515625C489.37109375,695.875,489.37109375,722.21875,489.37109375,748.5625C489.37109375,774.90625,489.37109375,801.25,548.97265625,822.2918376183679C608.57421875,843.3336752367359,727.77734375,859.0736004734717,787.37890625,866.9435630918397L846.98046875,874.8135257102075" id="edge6" class="relation" marker-start="url(#dependencyStart)"></path><path d="M765.23046875,109.68726170909488L749.8404947916666,115.25500975757906C734.4505208333334,120.82275780606325,703.6705729166666,131.95825390303162,688.2805989583334,164.04423111818247C672.890625,196.13020833333334,672.890625,249.16666666666666,672.890625,302.203125C672.890625,355.2395833333333,672.890625,408.2760416666667,713.1204427083334,446.0933666735165C753.3502604166666,483.91069168036637,833.8098958333334,506.5088833607326,874.0397135416666,517.8079792009158L914.26953125,529.1070750410989" id="edge7" class="relation" marker-start="url(#dependencyStart)"></path><path d="M1045.18359375,83.10304068221029L1103.3619791666667,93.10149223517526C1161.5403645833333,103.0999437881402,1277.8971354166667,123.0968468940701,1336.0755208333333,159.61352761370173C1394.25390625,196.13020833333334,1394.25390625,249.16666666666666,1394.25390625,302.203125C1394.25390625,355.2395833333333,1394.25390625,408.2760416666667,1394.25390625,452.1458333333333C1394.25390625,496.015625,1394.25390625,530.71875,1394.25390625,565.421875C1394.25390625,600.125,1394.25390625,634.828125,1352.2610677083333,660.2438430633334C1310.2682291666667,685.659561126667,1226.2825520833333,701.7878722533338,1184.2897135416667,709.8520278166675L1142.296875,717.9161833800009" id="edge8" class="relation" marker-start="url(#dependencyStart)"></path><path d="M1045.18359375,77.55785053011678L1127.7786458333333,88.48050044176398C1210.3736979166667,99.40315035341119,1375.5638020833333,121.24845017670559,1270,155.9228943076474C1164.4361979166667,190.59733843858922,788.1184895833334,238.1009268771784,599.9596354166666,261.85272109647303L411.80078125,285.6045153157676" id="edge9" class="relation" marker-start="url(#dependencyStart)"></path><path d="M117.453125,87.625L117.453125,96.86979166666667C117.453125,106.11458333333333,117.453125,124.60416666666667,133.74986688905528,149.77083333333334C150.04660877811057,174.9375,182.64009255622113,206.78125,198.93683444527645,222.703125L215.23357633433173,238.625" id="edge10" class="relation" marker-start="url(#dependencyStart)"></path><path d="M386.125,87.625L386.125,96.86979166666667C386.125,106.11458333333333,386.125,124.60416666666667,375.5360853413778,149.77083333333334C364.9471706827556,174.9375,343.76934136551114,206.78125,333.18042670688897,222.703125L322.59151204826674,238.625" id="edge11" class="relation" marker-start="url(#dependencyStart)"></path><path d="M1692.8492945656722,97.625L1674.1667298463935,105.203125C1655.4841651271147,112.78125,1618.1190356885575,127.9375,1599.4364709692788,162.03385416666666C1580.75390625,196.13020833333334,1580.75390625,249.16666666666666,1580.75390625,302.203125C1580.75390625,355.2395833333333,1580.75390625,408.2760416666667,1512.7721354166667,447.9694464896015C1444.7903645833333,487.66285131253636,1308.8268229166667,514.0132026250727,1240.8450520833333,527.1883782813409L1172.86328125,540.363553937609" id="edge12" class="relation" marker-start="url(#dependencyStart)"></path><path d="M1702.029439574038,97.625L1685.1501840200317,105.203125C1668.2709284660252,112.78125,1634.5124173580127,127.9375,1617.6331618040065,162.03385416666666C1600.75390625,196.13020833333334,1600.75390625,249.16666666666666,1600.75390625,302.203125C1600.75390625,355.2395833333333,1600.75390625,408.2760416666667,1600.75390625,452.1458333333333C1600.75390625,496.015625,1600.75390625,530.71875,1600.75390625,565.421875C1600.75390625,600.125,1600.75390625,634.828125,1524.3444010416667,661.9504300111712C1447.9348958333333,689.0727350223424,1295.1158854166667,708.6142200446849,1218.7063802083333,718.3849625558561L1142.296875,728.1557050670274" id="edge13" class="relation" marker-start="url(#dependencyStart)"></path><path d="M1787.95703125,97.625L1787.95703125,105.203125C1787.95703125,112.78125,1787.95703125,127.9375,1787.95703125,162.03385416666666C1787.95703125,196.13020833333334,1787.95703125,249.16666666666666,1787.95703125,302.203125C1787.95703125,355.2395833333333,1787.95703125,408.2760416666667,1787.95703125,452.1458333333333C1787.95703125,496.015625,1787.95703125,530.71875,1787.95703125,565.421875C1787.95703125,600.125,1787.95703125,634.828125,1787.95703125,665.3515625C1787.95703125,695.875,1787.95703125,722.21875,1787.95703125,748.5625C1787.95703125,774.90625,1787.95703125,801.25,1698.9296875,823.3633665255696C1609.90234375,845.4767330511391,1431.84765625,863.3597161022784,1342.8203125,872.3012076278479L1253.79296875,881.2426991534176" id="edge14" class="relation" marker-start="url(#dependencyStart)"></path><path d="M1797.1371762583658,97.625L1798.9404854236382,105.203125C1800.7437945889105,112.78125,1804.3504129194553,127.9375,1806.1537220847276,162.03385416666666C1807.95703125,196.13020833333334,1807.95703125,249.16666666666666,1807.95703125,302.203125C1807.95703125,355.2395833333333,1807.95703125,408.2760416666667,1807.95703125,452.1458333333333C1807.95703125,496.015625,1807.95703125,530.71875,1807.95703125,565.421875C1807.95703125,600.125,1807.95703125,634.828125,1752.021484375,661.4738736187306C1696.0859375,688.1196222374614,1584.21484375,706.7079944749227,1528.279296875,716.0021805936532L1472.34375,725.2963667123839" id="edge15" class="relation" marker-start="url(#dependencyStart)"></path></svg>